%TF.GenerationSoftware,KiCad,Pcbnew,(7.0.0)*%
%TF.CreationDate,2023-02-19T19:08:13+01:00*%
%TF.ProjectId,Trial_ESP32,54726961-6c5f-4455-9350-33322e6b6963,rev?*%
%TF.SameCoordinates,Original*%
%TF.FileFunction,Legend,Top*%
%TF.FilePolarity,Positive*%
%FSLAX46Y46*%
G04 Gerber Fmt 4.6, Leading zero omitted, Abs format (unit mm)*
G04 Created by KiCad (PCBNEW (7.0.0)) date 2023-02-19 19:08:13*
%MOMM*%
%LPD*%
G01*
G04 APERTURE LIST*
%ADD10C,0.100000*%
%ADD11C,0.120000*%
G04 APERTURE END LIST*
D10*
%TO.C,REF\u002A\u002A*%
X29146666Y-43047380D02*
X28813333Y-42571190D01*
X28575238Y-43047380D02*
X28575238Y-42047380D01*
X28575238Y-42047380D02*
X28956190Y-42047380D01*
X28956190Y-42047380D02*
X29051428Y-42095000D01*
X29051428Y-42095000D02*
X29099047Y-42142619D01*
X29099047Y-42142619D02*
X29146666Y-42237857D01*
X29146666Y-42237857D02*
X29146666Y-42380714D01*
X29146666Y-42380714D02*
X29099047Y-42475952D01*
X29099047Y-42475952D02*
X29051428Y-42523571D01*
X29051428Y-42523571D02*
X28956190Y-42571190D01*
X28956190Y-42571190D02*
X28575238Y-42571190D01*
X29575238Y-42523571D02*
X29908571Y-42523571D01*
X30051428Y-43047380D02*
X29575238Y-43047380D01*
X29575238Y-43047380D02*
X29575238Y-42047380D01*
X29575238Y-42047380D02*
X30051428Y-42047380D01*
X30813333Y-42523571D02*
X30480000Y-42523571D01*
X30480000Y-43047380D02*
X30480000Y-42047380D01*
X30480000Y-42047380D02*
X30956190Y-42047380D01*
X31480000Y-42047380D02*
X31480000Y-42285476D01*
X31241905Y-42190238D02*
X31480000Y-42285476D01*
X31480000Y-42285476D02*
X31718095Y-42190238D01*
X31337143Y-42475952D02*
X31480000Y-42285476D01*
X31480000Y-42285476D02*
X31622857Y-42475952D01*
X32241905Y-42047380D02*
X32241905Y-42285476D01*
X32003810Y-42190238D02*
X32241905Y-42285476D01*
X32241905Y-42285476D02*
X32480000Y-42190238D01*
X32099048Y-42475952D02*
X32241905Y-42285476D01*
X32241905Y-42285476D02*
X32384762Y-42475952D01*
D11*
X17534000Y-21217000D02*
X19284000Y-21217000D01*
X17534000Y-22967000D02*
X17534000Y-21217000D01*
X17664000Y-24007000D02*
X17644000Y-70807000D01*
X18923000Y-64743000D02*
X21663000Y-64743000D01*
X18923000Y-64770000D02*
X21663000Y-64770000D01*
X18923000Y-64770000D02*
X21663000Y-64770000D01*
X18954000Y-26447000D02*
X18923000Y-64770000D01*
X20324000Y-21347000D02*
X43130000Y-21320000D01*
X21663000Y-64770000D02*
X21694000Y-26447000D01*
X21694000Y-26447000D02*
X18954000Y-26447000D01*
X21694000Y-26447000D02*
X18954000Y-26447000D01*
X41729000Y-64716000D02*
X44469000Y-64716000D01*
X41729000Y-64743000D02*
X44469000Y-64743000D01*
X41729000Y-64743000D02*
X44469000Y-64743000D01*
X41760000Y-26420000D02*
X41729000Y-64743000D01*
X43110000Y-73440000D02*
X20304000Y-73467000D01*
X44469000Y-64743000D02*
X44500000Y-26420000D01*
X44500000Y-26420000D02*
X41760000Y-26420000D01*
X45790000Y-23980000D02*
X45770000Y-70780000D01*
X20324000Y-21347000D02*
G75*
G03*
X17664000Y-24007000I0J-2660000D01*
G01*
X17644000Y-70807000D02*
G75*
G03*
X20304000Y-73467000I2660000J0D01*
G01*
X45790000Y-23980000D02*
G75*
G03*
X43130000Y-21320000I-2660000J0D01*
G01*
X43110000Y-73440000D02*
G75*
G03*
X45770000Y-70780000I0J2660000D01*
G01*
D10*
X25160714Y-71205713D02*
X25827380Y-71205713D01*
X24779761Y-71443808D02*
X25494047Y-71681903D01*
X25494047Y-71681903D02*
X25494047Y-71062856D01*
X25779761Y-70634284D02*
X25827380Y-70634284D01*
X25827380Y-70634284D02*
X25922619Y-70681903D01*
X25922619Y-70681903D02*
X25970238Y-70729522D01*
X25827380Y-70158094D02*
X25827380Y-69967618D01*
X25827380Y-69967618D02*
X25779761Y-69872380D01*
X25779761Y-69872380D02*
X25732142Y-69824761D01*
X25732142Y-69824761D02*
X25589285Y-69729523D01*
X25589285Y-69729523D02*
X25398809Y-69681904D01*
X25398809Y-69681904D02*
X25017857Y-69681904D01*
X25017857Y-69681904D02*
X24922619Y-69729523D01*
X24922619Y-69729523D02*
X24875000Y-69777142D01*
X24875000Y-69777142D02*
X24827380Y-69872380D01*
X24827380Y-69872380D02*
X24827380Y-70062856D01*
X24827380Y-70062856D02*
X24875000Y-70158094D01*
X24875000Y-70158094D02*
X24922619Y-70205713D01*
X24922619Y-70205713D02*
X25017857Y-70253332D01*
X25017857Y-70253332D02*
X25255952Y-70253332D01*
X25255952Y-70253332D02*
X25351190Y-70205713D01*
X25351190Y-70205713D02*
X25398809Y-70158094D01*
X25398809Y-70158094D02*
X25446428Y-70062856D01*
X25446428Y-70062856D02*
X25446428Y-69872380D01*
X25446428Y-69872380D02*
X25398809Y-69777142D01*
X25398809Y-69777142D02*
X25351190Y-69729523D01*
X25351190Y-69729523D02*
X25255952Y-69681904D01*
X25827380Y-69205713D02*
X25827380Y-69015237D01*
X25827380Y-69015237D02*
X25779761Y-68919999D01*
X25779761Y-68919999D02*
X25732142Y-68872380D01*
X25732142Y-68872380D02*
X25589285Y-68777142D01*
X25589285Y-68777142D02*
X25398809Y-68729523D01*
X25398809Y-68729523D02*
X25017857Y-68729523D01*
X25017857Y-68729523D02*
X24922619Y-68777142D01*
X24922619Y-68777142D02*
X24875000Y-68824761D01*
X24875000Y-68824761D02*
X24827380Y-68919999D01*
X24827380Y-68919999D02*
X24827380Y-69110475D01*
X24827380Y-69110475D02*
X24875000Y-69205713D01*
X24875000Y-69205713D02*
X24922619Y-69253332D01*
X24922619Y-69253332D02*
X25017857Y-69300951D01*
X25017857Y-69300951D02*
X25255952Y-69300951D01*
X25255952Y-69300951D02*
X25351190Y-69253332D01*
X25351190Y-69253332D02*
X25398809Y-69205713D01*
X25398809Y-69205713D02*
X25446428Y-69110475D01*
X25446428Y-69110475D02*
X25446428Y-68919999D01*
X25446428Y-68919999D02*
X25398809Y-68824761D01*
X25398809Y-68824761D02*
X25351190Y-68777142D01*
X25351190Y-68777142D02*
X25255952Y-68729523D01*
X24827380Y-68396189D02*
X24827380Y-67729523D01*
X24827380Y-67729523D02*
X25827380Y-68158094D01*
X24827380Y-67158094D02*
X24827380Y-67062856D01*
X24827380Y-67062856D02*
X24875000Y-66967618D01*
X24875000Y-66967618D02*
X24922619Y-66919999D01*
X24922619Y-66919999D02*
X25017857Y-66872380D01*
X25017857Y-66872380D02*
X25208333Y-66824761D01*
X25208333Y-66824761D02*
X25446428Y-66824761D01*
X25446428Y-66824761D02*
X25636904Y-66872380D01*
X25636904Y-66872380D02*
X25732142Y-66919999D01*
X25732142Y-66919999D02*
X25779761Y-66967618D01*
X25779761Y-66967618D02*
X25827380Y-67062856D01*
X25827380Y-67062856D02*
X25827380Y-67158094D01*
X25827380Y-67158094D02*
X25779761Y-67253332D01*
X25779761Y-67253332D02*
X25732142Y-67300951D01*
X25732142Y-67300951D02*
X25636904Y-67348570D01*
X25636904Y-67348570D02*
X25446428Y-67396189D01*
X25446428Y-67396189D02*
X25208333Y-67396189D01*
X25208333Y-67396189D02*
X25017857Y-67348570D01*
X25017857Y-67348570D02*
X24922619Y-67300951D01*
X24922619Y-67300951D02*
X24875000Y-67253332D01*
X24875000Y-67253332D02*
X24827380Y-67158094D01*
X25827380Y-65796189D02*
X25160714Y-65796189D01*
X25255952Y-65796189D02*
X25208333Y-65748570D01*
X25208333Y-65748570D02*
X25160714Y-65653332D01*
X25160714Y-65653332D02*
X25160714Y-65510475D01*
X25160714Y-65510475D02*
X25208333Y-65415237D01*
X25208333Y-65415237D02*
X25303571Y-65367618D01*
X25303571Y-65367618D02*
X25827380Y-65367618D01*
X25303571Y-65367618D02*
X25208333Y-65319999D01*
X25208333Y-65319999D02*
X25160714Y-65224761D01*
X25160714Y-65224761D02*
X25160714Y-65081904D01*
X25160714Y-65081904D02*
X25208333Y-64986665D01*
X25208333Y-64986665D02*
X25303571Y-64939046D01*
X25303571Y-64939046D02*
X25827380Y-64939046D01*
X25827380Y-64462856D02*
X25160714Y-64462856D01*
X25255952Y-64462856D02*
X25208333Y-64415237D01*
X25208333Y-64415237D02*
X25160714Y-64319999D01*
X25160714Y-64319999D02*
X25160714Y-64177142D01*
X25160714Y-64177142D02*
X25208333Y-64081904D01*
X25208333Y-64081904D02*
X25303571Y-64034285D01*
X25303571Y-64034285D02*
X25827380Y-64034285D01*
X25303571Y-64034285D02*
X25208333Y-63986666D01*
X25208333Y-63986666D02*
X25160714Y-63891428D01*
X25160714Y-63891428D02*
X25160714Y-63748571D01*
X25160714Y-63748571D02*
X25208333Y-63653332D01*
X25208333Y-63653332D02*
X25303571Y-63605713D01*
X25303571Y-63605713D02*
X25827380Y-63605713D01*
X20793000Y-64323000D02*
X24206420Y-64323000D01*
X20793000Y-69320000D02*
X24206420Y-69320000D01*
X23620000Y-64323000D02*
X23620000Y-69320000D01*
X23620000Y-64323000D02*
X23620000Y-69320000D01*
X23620000Y-64323000D02*
X24206421Y-65449504D01*
X23620000Y-64323000D02*
X23033579Y-65449504D01*
X23620000Y-69320000D02*
X23033579Y-68193496D01*
X23620000Y-69320000D02*
X24206421Y-68193496D01*
X27185049Y-13648822D02*
X27232707Y-13601242D01*
X27232707Y-13601242D02*
X27327983Y-13553700D01*
X27327983Y-13553700D02*
X27566078Y-13553893D01*
X27566078Y-13553893D02*
X27661278Y-13601589D01*
X27661278Y-13601589D02*
X27708858Y-13649247D01*
X27708858Y-13649247D02*
X27756400Y-13744523D01*
X27756400Y-13744523D02*
X27756323Y-13839762D01*
X27756323Y-13839762D02*
X27708588Y-13982580D01*
X27708588Y-13982580D02*
X27136696Y-14553545D01*
X27136696Y-14553545D02*
X27755744Y-14554047D01*
X28327635Y-13983082D02*
X28232436Y-13935386D01*
X28232436Y-13935386D02*
X28184856Y-13887728D01*
X28184856Y-13887728D02*
X28137314Y-13792451D01*
X28137314Y-13792451D02*
X28137352Y-13744832D01*
X28137352Y-13744832D02*
X28185049Y-13649633D01*
X28185049Y-13649633D02*
X28232706Y-13602053D01*
X28232706Y-13602053D02*
X28327983Y-13554511D01*
X28327983Y-13554511D02*
X28518459Y-13554665D01*
X28518459Y-13554665D02*
X28613659Y-13602361D01*
X28613659Y-13602361D02*
X28661239Y-13650019D01*
X28661239Y-13650019D02*
X28708781Y-13745296D01*
X28708781Y-13745296D02*
X28708742Y-13792915D01*
X28708742Y-13792915D02*
X28661046Y-13888114D01*
X28661046Y-13888114D02*
X28613388Y-13935695D01*
X28613388Y-13935695D02*
X28518112Y-13983236D01*
X28518112Y-13983236D02*
X28327635Y-13983082D01*
X28327635Y-13983082D02*
X28232359Y-14030624D01*
X28232359Y-14030624D02*
X28184701Y-14078204D01*
X28184701Y-14078204D02*
X28137005Y-14173404D01*
X28137005Y-14173404D02*
X28136850Y-14363880D01*
X28136850Y-14363880D02*
X28184392Y-14459156D01*
X28184392Y-14459156D02*
X28231973Y-14506814D01*
X28231973Y-14506814D02*
X28327172Y-14554510D01*
X28327172Y-14554510D02*
X28517648Y-14554665D01*
X28517648Y-14554665D02*
X28612925Y-14507123D01*
X28612925Y-14507123D02*
X28660583Y-14459543D01*
X28660583Y-14459543D02*
X28708279Y-14364343D01*
X28708279Y-14364343D02*
X28708433Y-14173867D01*
X28708433Y-14173867D02*
X28660891Y-14078590D01*
X28660891Y-14078590D02*
X28613311Y-14030933D01*
X28613311Y-14030933D02*
X28518112Y-13983236D01*
X29184353Y-14507586D02*
X29184315Y-14555205D01*
X29184315Y-14555205D02*
X29136618Y-14650405D01*
X29136618Y-14650405D02*
X29088961Y-14697985D01*
X29518458Y-13555476D02*
X30137506Y-13555978D01*
X30137506Y-13555978D02*
X29803864Y-13936660D01*
X29803864Y-13936660D02*
X29946721Y-13936776D01*
X29946721Y-13936776D02*
X30041920Y-13984472D01*
X30041920Y-13984472D02*
X30089501Y-14032130D01*
X30089501Y-14032130D02*
X30137042Y-14127406D01*
X30137042Y-14127406D02*
X30136849Y-14365501D01*
X30136849Y-14365501D02*
X30089153Y-14460701D01*
X30089153Y-14460701D02*
X30041495Y-14508281D01*
X30041495Y-14508281D02*
X29946219Y-14555823D01*
X29946219Y-14555823D02*
X29660505Y-14555591D01*
X29660505Y-14555591D02*
X29565305Y-14507895D01*
X29565305Y-14507895D02*
X29517725Y-14460238D01*
X30994648Y-13556673D02*
X30804172Y-13556518D01*
X30804172Y-13556518D02*
X30708896Y-13604060D01*
X30708896Y-13604060D02*
X30661238Y-13651641D01*
X30661238Y-13651641D02*
X30565884Y-13794421D01*
X30565884Y-13794421D02*
X30518111Y-13984858D01*
X30518111Y-13984858D02*
X30517802Y-14365810D01*
X30517802Y-14365810D02*
X30565343Y-14461087D01*
X30565343Y-14461087D02*
X30612924Y-14508745D01*
X30612924Y-14508745D02*
X30708123Y-14556441D01*
X30708123Y-14556441D02*
X30898599Y-14556595D01*
X30898599Y-14556595D02*
X30993876Y-14509054D01*
X30993876Y-14509054D02*
X31041534Y-14461473D01*
X31041534Y-14461473D02*
X31089230Y-14366274D01*
X31089230Y-14366274D02*
X31089423Y-14128179D01*
X31089423Y-14128179D02*
X31041881Y-14032902D01*
X31041881Y-14032902D02*
X30994301Y-13985244D01*
X30994301Y-13985244D02*
X30899101Y-13937548D01*
X30899101Y-13937548D02*
X30708625Y-13937394D01*
X30708625Y-13937394D02*
X30613349Y-13984935D01*
X30613349Y-13984935D02*
X30565691Y-14032516D01*
X30565691Y-14032516D02*
X30517995Y-14127715D01*
X31947029Y-13557445D02*
X31756553Y-13557291D01*
X31756553Y-13557291D02*
X31661276Y-13604832D01*
X31661276Y-13604832D02*
X31613619Y-13652413D01*
X31613619Y-13652413D02*
X31518265Y-13795193D01*
X31518265Y-13795193D02*
X31470491Y-13985630D01*
X31470491Y-13985630D02*
X31470182Y-14366583D01*
X31470182Y-14366583D02*
X31517724Y-14461859D01*
X31517724Y-14461859D02*
X31565305Y-14509517D01*
X31565305Y-14509517D02*
X31660504Y-14557213D01*
X31660504Y-14557213D02*
X31850980Y-14557368D01*
X31850980Y-14557368D02*
X31946257Y-14509826D01*
X31946257Y-14509826D02*
X31993914Y-14462245D01*
X31993914Y-14462245D02*
X32041611Y-14367046D01*
X32041611Y-14367046D02*
X32041804Y-14128951D01*
X32041804Y-14128951D02*
X31994262Y-14033674D01*
X31994262Y-14033674D02*
X31946682Y-13986016D01*
X31946682Y-13986016D02*
X31851482Y-13938320D01*
X31851482Y-13938320D02*
X31661006Y-13938166D01*
X31661006Y-13938166D02*
X31565729Y-13985708D01*
X31565729Y-13985708D02*
X31518072Y-14033288D01*
X31518072Y-14033288D02*
X31470375Y-14128487D01*
X32661315Y-13558024D02*
X32756553Y-13558102D01*
X32756553Y-13558102D02*
X32851752Y-13605798D01*
X32851752Y-13605798D02*
X32899333Y-13653455D01*
X32899333Y-13653455D02*
X32946874Y-13748732D01*
X32946874Y-13748732D02*
X32994339Y-13939247D01*
X32994339Y-13939247D02*
X32994146Y-14177342D01*
X32994146Y-14177342D02*
X32946372Y-14367780D01*
X32946372Y-14367780D02*
X32898676Y-14462979D01*
X32898676Y-14462979D02*
X32851018Y-14510559D01*
X32851018Y-14510559D02*
X32755742Y-14558101D01*
X32755742Y-14558101D02*
X32660504Y-14558024D01*
X32660504Y-14558024D02*
X32565304Y-14510328D01*
X32565304Y-14510328D02*
X32517724Y-14462670D01*
X32517724Y-14462670D02*
X32470182Y-14367393D01*
X32470182Y-14367393D02*
X32422717Y-14176879D01*
X32422717Y-14176879D02*
X32422911Y-13938783D01*
X32422911Y-13938783D02*
X32470684Y-13748346D01*
X32470684Y-13748346D02*
X32518380Y-13653147D01*
X32518380Y-13653147D02*
X32566038Y-13605566D01*
X32566038Y-13605566D02*
X32661315Y-13558024D01*
X34022408Y-14559128D02*
X34022949Y-13892462D01*
X34022871Y-13987700D02*
X34070529Y-13940119D01*
X34070529Y-13940119D02*
X34165806Y-13892578D01*
X34165806Y-13892578D02*
X34308663Y-13892693D01*
X34308663Y-13892693D02*
X34403862Y-13940390D01*
X34403862Y-13940390D02*
X34451404Y-14035666D01*
X34451404Y-14035666D02*
X34450979Y-14559476D01*
X34451404Y-14035666D02*
X34499100Y-13940467D01*
X34499100Y-13940467D02*
X34594377Y-13892925D01*
X34594377Y-13892925D02*
X34737234Y-13893041D01*
X34737234Y-13893041D02*
X34832434Y-13940737D01*
X34832434Y-13940737D02*
X34879975Y-14036014D01*
X34879975Y-14036014D02*
X34879551Y-14559823D01*
X35355741Y-14560209D02*
X35356281Y-13893543D01*
X35356204Y-13988781D02*
X35403862Y-13941201D01*
X35403862Y-13941201D02*
X35499138Y-13893659D01*
X35499138Y-13893659D02*
X35641995Y-13893775D01*
X35641995Y-13893775D02*
X35737195Y-13941471D01*
X35737195Y-13941471D02*
X35784737Y-14036747D01*
X35784737Y-14036747D02*
X35784312Y-14560557D01*
X35784737Y-14036747D02*
X35832433Y-13941548D01*
X35832433Y-13941548D02*
X35927710Y-13894006D01*
X35927710Y-13894006D02*
X36070567Y-13894122D01*
X36070567Y-13894122D02*
X36165766Y-13941818D01*
X36165766Y-13941818D02*
X36213308Y-14037095D01*
X36213308Y-14037095D02*
X36212883Y-14560904D01*
X17534405Y-20717000D02*
X17539290Y-14691963D01*
X45900405Y-20740000D02*
X45905290Y-14714963D01*
X17538815Y-15278383D02*
X45904815Y-15301383D01*
X17538815Y-15278383D02*
X45904815Y-15301383D01*
X17538815Y-15278383D02*
X18665794Y-14692876D01*
X17538815Y-15278383D02*
X18664843Y-15865717D01*
X45904815Y-15301383D02*
X44777836Y-15886890D01*
X45904815Y-15301383D02*
X44778787Y-14714049D01*
X47797789Y-51341850D02*
X47797151Y-51818040D01*
X47797151Y-51818040D02*
X48273278Y-51866297D01*
X48273278Y-51866297D02*
X48225722Y-51818614D01*
X48225722Y-51818614D02*
X48178231Y-51723312D01*
X48178231Y-51723312D02*
X48178550Y-51485217D01*
X48178550Y-51485217D02*
X48226296Y-51390043D01*
X48226296Y-51390043D02*
X48273979Y-51342488D01*
X48273979Y-51342488D02*
X48369281Y-51294996D01*
X48369281Y-51294996D02*
X48607376Y-51295315D01*
X48607376Y-51295315D02*
X48702550Y-51343062D01*
X48702550Y-51343062D02*
X48750105Y-51390744D01*
X48750105Y-51390744D02*
X48797597Y-51486046D01*
X48797597Y-51486046D02*
X48797278Y-51724141D01*
X48797278Y-51724141D02*
X48749531Y-51819315D01*
X48749531Y-51819315D02*
X48701849Y-51866871D01*
X47893601Y-50913406D02*
X47846046Y-50865724D01*
X47846046Y-50865724D02*
X47798554Y-50770422D01*
X47798554Y-50770422D02*
X47798873Y-50532327D01*
X47798873Y-50532327D02*
X47846620Y-50437153D01*
X47846620Y-50437153D02*
X47894303Y-50389597D01*
X47894303Y-50389597D02*
X47989604Y-50342106D01*
X47989604Y-50342106D02*
X48084842Y-50342233D01*
X48084842Y-50342233D02*
X48227636Y-50390044D01*
X48227636Y-50390044D02*
X48798298Y-50962237D01*
X48798298Y-50962237D02*
X48799127Y-50343190D01*
X48752146Y-49866936D02*
X48799765Y-49867000D01*
X48799765Y-49867000D02*
X48894939Y-49914746D01*
X48894939Y-49914746D02*
X48942495Y-49962429D01*
X47895514Y-49484837D02*
X47847959Y-49437154D01*
X47847959Y-49437154D02*
X47800467Y-49341852D01*
X47800467Y-49341852D02*
X47800786Y-49103757D01*
X47800786Y-49103757D02*
X47848533Y-49008583D01*
X47848533Y-49008583D02*
X47896216Y-48961028D01*
X47896216Y-48961028D02*
X47991517Y-48913536D01*
X47991517Y-48913536D02*
X48086755Y-48913664D01*
X48086755Y-48913664D02*
X48229549Y-48961474D01*
X48229549Y-48961474D02*
X48800212Y-49533667D01*
X48800212Y-49533667D02*
X48801041Y-48914620D01*
X47801488Y-48579948D02*
X47802381Y-47913282D01*
X47802381Y-47913282D02*
X48801806Y-48343192D01*
X47803146Y-47341854D02*
X47803273Y-47246616D01*
X47803273Y-47246616D02*
X47851020Y-47151442D01*
X47851020Y-47151442D02*
X47898703Y-47103886D01*
X47898703Y-47103886D02*
X47994005Y-47056395D01*
X47994005Y-47056395D02*
X48184544Y-47009031D01*
X48184544Y-47009031D02*
X48422639Y-47009350D01*
X48422639Y-47009350D02*
X48613052Y-47057224D01*
X48613052Y-47057224D02*
X48708226Y-47104970D01*
X48708226Y-47104970D02*
X48755781Y-47152653D01*
X48755781Y-47152653D02*
X48803273Y-47247955D01*
X48803273Y-47247955D02*
X48803145Y-47343193D01*
X48803145Y-47343193D02*
X48755398Y-47438367D01*
X48755398Y-47438367D02*
X48707716Y-47485923D01*
X48707716Y-47485923D02*
X48612414Y-47533414D01*
X48612414Y-47533414D02*
X48421874Y-47580778D01*
X48421874Y-47580778D02*
X48183779Y-47580459D01*
X48183779Y-47580459D02*
X47993367Y-47532585D01*
X47993367Y-47532585D02*
X47898193Y-47484838D01*
X47898193Y-47484838D02*
X47850637Y-47437156D01*
X47850637Y-47437156D02*
X47803146Y-47341854D01*
X47804421Y-46389474D02*
X47804549Y-46294236D01*
X47804549Y-46294236D02*
X47852295Y-46199061D01*
X47852295Y-46199061D02*
X47899978Y-46151506D01*
X47899978Y-46151506D02*
X47995280Y-46104015D01*
X47995280Y-46104015D02*
X48185820Y-46056651D01*
X48185820Y-46056651D02*
X48423915Y-46056970D01*
X48423915Y-46056970D02*
X48614327Y-46104844D01*
X48614327Y-46104844D02*
X48709501Y-46152590D01*
X48709501Y-46152590D02*
X48757057Y-46200273D01*
X48757057Y-46200273D02*
X48804548Y-46295575D01*
X48804548Y-46295575D02*
X48804420Y-46390813D01*
X48804420Y-46390813D02*
X48756674Y-46485987D01*
X48756674Y-46485987D02*
X48708991Y-46533542D01*
X48708991Y-46533542D02*
X48613689Y-46581034D01*
X48613689Y-46581034D02*
X48423150Y-46628398D01*
X48423150Y-46628398D02*
X48185054Y-46628079D01*
X48185054Y-46628079D02*
X47994642Y-46580205D01*
X47994642Y-46580205D02*
X47899468Y-46532458D01*
X47899468Y-46532458D02*
X47851913Y-46484775D01*
X47851913Y-46484775D02*
X47804421Y-46389474D01*
X48806244Y-45028909D02*
X48139578Y-45028017D01*
X48234816Y-45028144D02*
X48187261Y-44980461D01*
X48187261Y-44980461D02*
X48139770Y-44885160D01*
X48139770Y-44885160D02*
X48139961Y-44742302D01*
X48139961Y-44742302D02*
X48187707Y-44647128D01*
X48187707Y-44647128D02*
X48283009Y-44599637D01*
X48283009Y-44599637D02*
X48806818Y-44600338D01*
X48283009Y-44599637D02*
X48187835Y-44551890D01*
X48187835Y-44551890D02*
X48140343Y-44456588D01*
X48140343Y-44456588D02*
X48140535Y-44313731D01*
X48140535Y-44313731D02*
X48188281Y-44218557D01*
X48188281Y-44218557D02*
X48283583Y-44171066D01*
X48283583Y-44171066D02*
X48807392Y-44171767D01*
X48808030Y-43695578D02*
X48141364Y-43694685D01*
X48236602Y-43694812D02*
X48189047Y-43647129D01*
X48189047Y-43647129D02*
X48141555Y-43551828D01*
X48141555Y-43551828D02*
X48141746Y-43408971D01*
X48141746Y-43408971D02*
X48189493Y-43313796D01*
X48189493Y-43313796D02*
X48284795Y-43266305D01*
X48284795Y-43266305D02*
X48808604Y-43267006D01*
X48284795Y-43266305D02*
X48189621Y-43218558D01*
X48189621Y-43218558D02*
X48142129Y-43123257D01*
X48142129Y-43123257D02*
X48142320Y-42980400D01*
X48142320Y-42980400D02*
X48190067Y-42885225D01*
X48190067Y-42885225D02*
X48285369Y-42837734D01*
X48285369Y-42837734D02*
X48809178Y-42838435D01*
X46420000Y-21190670D02*
X50157203Y-21195675D01*
X46350000Y-73460670D02*
X50087203Y-73465675D01*
X49570783Y-21194889D02*
X49500783Y-73464889D01*
X49570783Y-21194889D02*
X49500783Y-73464889D01*
X49570783Y-21194889D02*
X50155695Y-22322177D01*
X49570783Y-21194889D02*
X48982854Y-22320606D01*
X49500783Y-73464889D02*
X48915871Y-72337601D01*
X49500783Y-73464889D02*
X50088712Y-72339172D01*
%TD*%
M02*
