M48
; DRILL file {KiCad (7.0.0)} date Sun Feb 19 19:08:36 2023
; FORMAT={-:-/ absolute / inch / decimal}
; #@! TF.CreationDate,2023-02-19T19:08:36+01:00
; #@! TF.GenerationSoftware,Kicad,Pcbnew,(7.0.0)
; #@! TF.FileFunction,Plated,1,2,PTH
FMAT,2
INCH
; #@! TA.AperFunction,Plated,PTH,ComponentDrill
T1C0.0402
%
G90
G05
T1
X0.7989Y-2.095
X0.7989Y-2.195
X0.7989Y-2.295
X0.7989Y-2.395
X0.7989Y-2.495
X0.8002Y-1.0952
X0.8002Y-1.1952
X0.8002Y-1.2952
X0.8002Y-1.3952
X0.8002Y-1.4952
X0.8002Y-1.5952
X0.8002Y-1.6952
X0.8002Y-1.7952
X0.8002Y-1.8952
X0.8002Y-1.9952
X1.6968Y-2.0939
X1.6968Y-2.1939
X1.6968Y-2.2939
X1.6968Y-2.3939
X1.6968Y-2.4939
X1.698Y-1.0941
X1.698Y-1.1941
X1.698Y-1.2941
X1.698Y-1.3941
X1.698Y-1.4941
X1.698Y-1.5941
X1.698Y-1.6941
X1.698Y-1.7941
X1.698Y-1.8941
X1.698Y-1.9941
T0
M30
